<mxfile host="app.diagrams.net" agent="Mozilla/5.0 (Windows NT 10.0; Win64; x64) AppleWebKit/537.36 (KHTML, like Gecko) Chrome/135.0.0.0 Safari/537.36" version="27.0.1">
  <diagram name="Page-1" id="gDfE9qqJxFaP5S4uHn-a">
    <mxGraphModel dx="1970" dy="1634" grid="1" gridSize="10" guides="1" tooltips="1" connect="1" arrows="1" fold="1" page="1" pageScale="1" pageWidth="850" pageHeight="1100" background="light-dark(#FFFFFF,#000000)" math="0" shadow="0">
      <root>
        <mxCell id="0" />
        <mxCell id="1" parent="0" />
        <mxCell id="OW7g6tEufCx2NIy_bn_X-10" value="" style="rounded=0;whiteSpace=wrap;html=1;dashed=1;dashPattern=8 8;" parent="1" vertex="1">
          <mxGeometry x="618.75" y="160" width="160" height="240" as="geometry" />
        </mxCell>
        <mxCell id="OW7g6tEufCx2NIy_bn_X-14" value="" style="group" parent="1" vertex="1" connectable="0">
          <mxGeometry x="637.5" y="300" width="120" height="70" as="geometry" />
        </mxCell>
        <mxCell id="OW7g6tEufCx2NIy_bn_X-8" value="" style="rounded=0;whiteSpace=wrap;html=1;" parent="OW7g6tEufCx2NIy_bn_X-14" vertex="1">
          <mxGeometry width="120" height="70" as="geometry" />
        </mxCell>
        <mxCell id="OW7g6tEufCx2NIy_bn_X-9" value="Servo Motor&lt;div&gt;(Gimble Actuator)&lt;/div&gt;" style="text;html=1;align=center;verticalAlign=middle;whiteSpace=wrap;rounded=0;" parent="OW7g6tEufCx2NIy_bn_X-14" vertex="1">
          <mxGeometry x="10" y="26.25" width="100" height="17.5" as="geometry" />
        </mxCell>
        <mxCell id="OW7g6tEufCx2NIy_bn_X-17" value="&lt;b&gt;&lt;font style=&quot;font-size: 13px;&quot;&gt;Control Momentum Gyroscope Actuator&lt;/font&gt;&lt;/b&gt;" style="text;html=1;align=center;verticalAlign=middle;whiteSpace=wrap;rounded=0;" parent="1" vertex="1">
          <mxGeometry x="618.75" y="170" width="157.5" height="30" as="geometry" />
        </mxCell>
        <mxCell id="OW7g6tEufCx2NIy_bn_X-18" value="" style="group" parent="1" vertex="1" connectable="0">
          <mxGeometry x="657.5" y="430" width="80" height="50" as="geometry" />
        </mxCell>
        <mxCell id="OW7g6tEufCx2NIy_bn_X-19" value="" style="rounded=0;whiteSpace=wrap;html=1;" parent="OW7g6tEufCx2NIy_bn_X-18" vertex="1">
          <mxGeometry width="80" height="50" as="geometry" />
        </mxCell>
        <mxCell id="OW7g6tEufCx2NIy_bn_X-20" value="&lt;b&gt;&lt;font style=&quot;font-size: 14px;&quot;&gt;IMU&lt;/font&gt;&lt;/b&gt;" style="text;html=1;align=center;verticalAlign=middle;whiteSpace=wrap;rounded=0;" parent="OW7g6tEufCx2NIy_bn_X-18" vertex="1">
          <mxGeometry x="20" y="18.75" width="40" height="12.5" as="geometry" />
        </mxCell>
        <mxCell id="OW7g6tEufCx2NIy_bn_X-159" value="" style="ellipse;whiteSpace=wrap;html=1;aspect=fixed;fillColor=light-dark(#FFFFFF,#FFFF00);strokeColor=none;" parent="OW7g6tEufCx2NIy_bn_X-18" vertex="1">
          <mxGeometry y="-10" width="10" height="10" as="geometry" />
        </mxCell>
        <mxCell id="OW7g6tEufCx2NIy_bn_X-11" value="" style="rounded=0;whiteSpace=wrap;html=1;" parent="1" vertex="1">
          <mxGeometry x="638.75" y="220" width="120" height="60" as="geometry" />
        </mxCell>
        <mxCell id="OW7g6tEufCx2NIy_bn_X-12" value="Brushed DC Motor&lt;div&gt;(Spinning Flywheel)&lt;/div&gt;" style="text;html=1;align=center;verticalAlign=middle;whiteSpace=wrap;rounded=0;container=0;" parent="1" vertex="1">
          <mxGeometry x="638.75" y="235" width="120" height="30" as="geometry" />
        </mxCell>
        <mxCell id="OW7g6tEufCx2NIy_bn_X-70" value="" style="rounded=0;whiteSpace=wrap;html=1;strokeColor=light-dark(#000000,#00CCCC);" parent="1" vertex="1">
          <mxGeometry x="280" y="40" width="500" height="100" as="geometry" />
        </mxCell>
        <mxCell id="OW7g6tEufCx2NIy_bn_X-71" value="&lt;b&gt;&lt;font style=&quot;font-size: 13px;&quot;&gt;Power Architecture*&lt;/font&gt;&lt;/b&gt;" style="text;html=1;align=center;verticalAlign=middle;whiteSpace=wrap;rounded=0;" parent="1" vertex="1">
          <mxGeometry x="465" y="40" width="130" height="30" as="geometry" />
        </mxCell>
        <mxCell id="OW7g6tEufCx2NIy_bn_X-82" style="edgeStyle=orthogonalEdgeStyle;rounded=0;orthogonalLoop=1;jettySize=auto;html=1;exitX=1;exitY=0.5;exitDx=0;exitDy=0;" parent="1" source="OW7g6tEufCx2NIy_bn_X-75" target="OW7g6tEufCx2NIy_bn_X-79" edge="1">
          <mxGeometry relative="1" as="geometry" />
        </mxCell>
        <mxCell id="OW7g6tEufCx2NIy_bn_X-75" value="Wall Supply&lt;div&gt;24V 10A&lt;/div&gt;" style="rounded=0;whiteSpace=wrap;html=1;" parent="1" vertex="1">
          <mxGeometry x="300" y="70" width="90" height="50" as="geometry" />
        </mxCell>
        <mxCell id="OW7g6tEufCx2NIy_bn_X-84" style="edgeStyle=orthogonalEdgeStyle;rounded=0;orthogonalLoop=1;jettySize=auto;html=1;exitX=1;exitY=0.5;exitDx=0;exitDy=0;entryX=0;entryY=0.5;entryDx=0;entryDy=0;" parent="1" source="OW7g6tEufCx2NIy_bn_X-76" target="OW7g6tEufCx2NIy_bn_X-80" edge="1">
          <mxGeometry relative="1" as="geometry" />
        </mxCell>
        <mxCell id="OW7g6tEufCx2NIy_bn_X-76" value="24V Buck 5V&lt;div&gt;2A capable&lt;/div&gt;" style="rounded=0;whiteSpace=wrap;html=1;" parent="1" vertex="1">
          <mxGeometry x="460" y="70" width="90" height="50" as="geometry" />
        </mxCell>
        <mxCell id="OW7g6tEufCx2NIy_bn_X-86" style="edgeStyle=orthogonalEdgeStyle;rounded=0;orthogonalLoop=1;jettySize=auto;html=1;exitX=1;exitY=0.5;exitDx=0;exitDy=0;entryX=0;entryY=0.5;entryDx=0;entryDy=0;" parent="1" source="OW7g6tEufCx2NIy_bn_X-77" target="OW7g6tEufCx2NIy_bn_X-81" edge="1">
          <mxGeometry relative="1" as="geometry" />
        </mxCell>
        <mxCell id="OW7g6tEufCx2NIy_bn_X-77" value="5V Buck 3V3&lt;div&gt;2A capable&lt;/div&gt;" style="rounded=0;whiteSpace=wrap;html=1;" parent="1" vertex="1">
          <mxGeometry x="618.75" y="70" width="90" height="50" as="geometry" />
        </mxCell>
        <mxCell id="OW7g6tEufCx2NIy_bn_X-83" style="edgeStyle=orthogonalEdgeStyle;rounded=0;orthogonalLoop=1;jettySize=auto;html=1;exitX=1;exitY=0.5;exitDx=0;exitDy=0;entryX=0;entryY=0.5;entryDx=0;entryDy=0;" parent="1" source="OW7g6tEufCx2NIy_bn_X-79" target="OW7g6tEufCx2NIy_bn_X-76" edge="1">
          <mxGeometry relative="1" as="geometry" />
        </mxCell>
        <mxCell id="OW7g6tEufCx2NIy_bn_X-79" value="&lt;b&gt;24V&lt;/b&gt;" style="ellipse;whiteSpace=wrap;html=1;aspect=fixed;fillColor=light-dark(#FFFFFF,#FF3333);strokeColor=none;fontColor=light-dark(#000000,#000000);" parent="1" vertex="1">
          <mxGeometry x="410" y="80" width="30" height="30" as="geometry" />
        </mxCell>
        <mxCell id="OW7g6tEufCx2NIy_bn_X-85" style="edgeStyle=orthogonalEdgeStyle;rounded=0;orthogonalLoop=1;jettySize=auto;html=1;exitX=1;exitY=0.5;exitDx=0;exitDy=0;entryX=0;entryY=0.5;entryDx=0;entryDy=0;" parent="1" source="OW7g6tEufCx2NIy_bn_X-80" target="OW7g6tEufCx2NIy_bn_X-77" edge="1">
          <mxGeometry relative="1" as="geometry" />
        </mxCell>
        <mxCell id="OW7g6tEufCx2NIy_bn_X-80" value="&lt;font style=&quot;color: light-dark(rgb(0, 0, 0), rgb(0, 0, 0));&quot;&gt;&lt;b&gt;5V&lt;/b&gt;&lt;/font&gt;" style="ellipse;whiteSpace=wrap;html=1;aspect=fixed;fillColor=light-dark(#FFFFFF,#FF8000);strokeColor=none;" parent="1" vertex="1">
          <mxGeometry x="570" y="80" width="30" height="30" as="geometry" />
        </mxCell>
        <mxCell id="OW7g6tEufCx2NIy_bn_X-81" value="&lt;font style=&quot;color: light-dark(rgb(0, 0, 0), rgb(0, 0, 0));&quot;&gt;&lt;b&gt;3V3&lt;/b&gt;&lt;/font&gt;" style="ellipse;whiteSpace=wrap;html=1;aspect=fixed;fillColor=light-dark(#FFFFFF,#FFFF00);strokeColor=none;" parent="1" vertex="1">
          <mxGeometry x="727.5" y="80" width="30" height="30" as="geometry" />
        </mxCell>
        <mxCell id="OW7g6tEufCx2NIy_bn_X-31" value="" style="sketch=0;pointerEvents=1;shadow=0;dashed=0;html=1;strokeColor=none;fillColor=#434445;aspect=fixed;labelPosition=center;verticalLabelPosition=bottom;verticalAlign=top;align=center;outlineConnect=0;shape=mxgraph.vvd.wi_fi;rotation=225;container=0;" parent="1" vertex="1">
          <mxGeometry x="217.5" y="490" width="40" height="40" as="geometry" />
        </mxCell>
        <mxCell id="OW7g6tEufCx2NIy_bn_X-140" value="&lt;font style=&quot;font-size: 11px;&quot;&gt;PWM&lt;/font&gt;" style="text;html=1;align=center;verticalAlign=middle;whiteSpace=wrap;rounded=0;container=0;" parent="1" vertex="1">
          <mxGeometry x="310" y="290" width="30" height="20" as="geometry" />
        </mxCell>
        <mxCell id="OW7g6tEufCx2NIy_bn_X-2" value="" style="rounded=0;whiteSpace=wrap;html=1;dashed=1;dashPattern=8 8;" parent="1" vertex="1">
          <mxGeometry x="280" y="160" width="280" height="380" as="geometry" />
        </mxCell>
        <mxCell id="OW7g6tEufCx2NIy_bn_X-4" value="&lt;b&gt;&lt;font style=&quot;font-size: 14px;&quot;&gt;Salvaged CNC PCBA&lt;/font&gt;&lt;/b&gt;" style="text;html=1;align=center;verticalAlign=middle;whiteSpace=wrap;rounded=0;" parent="1" vertex="1">
          <mxGeometry x="341.25" y="175" width="157.5" height="20" as="geometry" />
        </mxCell>
        <mxCell id="OW7g6tEufCx2NIy_bn_X-41" value="" style="rounded=0;whiteSpace=wrap;html=1;dashed=1;dashPattern=1 4;" parent="1" vertex="1">
          <mxGeometry x="290" y="320" width="100" height="210" as="geometry" />
        </mxCell>
        <mxCell id="OW7g6tEufCx2NIy_bn_X-47" value="&lt;b&gt;&lt;font style=&quot;font-size: 13px;&quot;&gt;SAMW25&lt;/font&gt;&lt;/b&gt;" style="text;html=1;align=center;verticalAlign=middle;whiteSpace=wrap;rounded=0;" parent="1" vertex="1">
          <mxGeometry x="310" y="320" width="60" height="30" as="geometry" />
        </mxCell>
        <mxCell id="OW7g6tEufCx2NIy_bn_X-54" style="edgeStyle=orthogonalEdgeStyle;rounded=0;orthogonalLoop=1;jettySize=auto;html=1;entryX=0;entryY=0.5;entryDx=0;entryDy=0;strokeColor=light-dark(#FFFFFF,#FFFF00);" parent="1" target="OW7g6tEufCx2NIy_bn_X-36" edge="1">
          <mxGeometry relative="1" as="geometry">
            <mxPoint x="350" y="320" as="sourcePoint" />
            <mxPoint x="340.01" y="235" as="targetPoint" />
            <Array as="points">
              <mxPoint x="350" y="320" />
              <mxPoint x="350" y="250" />
            </Array>
          </mxGeometry>
        </mxCell>
        <mxCell id="OW7g6tEufCx2NIy_bn_X-149" style="edgeStyle=orthogonalEdgeStyle;rounded=0;orthogonalLoop=1;jettySize=auto;html=1;entryX=0;entryY=0.5;entryDx=0;entryDy=0;exitX=0.992;exitY=0.418;exitDx=0;exitDy=0;exitPerimeter=0;strokeColor=light-dark(#FFFFFF,#FFFF00);" parent="1" target="OW7g6tEufCx2NIy_bn_X-148" edge="1">
          <mxGeometry relative="1" as="geometry">
            <mxPoint x="390.00000000000006" y="424.4200000000001" as="sourcePoint" />
          </mxGeometry>
        </mxCell>
        <mxCell id="OW7g6tEufCx2NIy_bn_X-48" value="SAMD21" style="rounded=0;whiteSpace=wrap;html=1;" parent="1" vertex="1">
          <mxGeometry x="300" y="350" width="80" height="130" as="geometry" />
        </mxCell>
        <mxCell id="OW7g6tEufCx2NIy_bn_X-50" style="edgeStyle=orthogonalEdgeStyle;rounded=0;orthogonalLoop=1;jettySize=auto;html=1;exitX=0.5;exitY=0;exitDx=0;exitDy=0;startArrow=classic;startFill=1;" parent="1" source="OW7g6tEufCx2NIy_bn_X-49" target="OW7g6tEufCx2NIy_bn_X-48" edge="1">
          <mxGeometry relative="1" as="geometry" />
        </mxCell>
        <mxCell id="OW7g6tEufCx2NIy_bn_X-49" value="WINC1500" style="rounded=0;whiteSpace=wrap;html=1;" parent="1" vertex="1">
          <mxGeometry x="300" y="500" width="80" height="20" as="geometry" />
        </mxCell>
        <mxCell id="OW7g6tEufCx2NIy_bn_X-55" style="edgeStyle=orthogonalEdgeStyle;rounded=0;orthogonalLoop=1;jettySize=auto;html=1;exitX=1;exitY=0.5;exitDx=0;exitDy=0;entryX=0;entryY=0.5;entryDx=0;entryDy=0;strokeColor=light-dark(#FFFFFF,#FF8000);" parent="1" source="OW7g6tEufCx2NIy_bn_X-36" target="OW7g6tEufCx2NIy_bn_X-40" edge="1">
          <mxGeometry relative="1" as="geometry" />
        </mxCell>
        <mxCell id="OW7g6tEufCx2NIy_bn_X-36" value="MOSFET gate drive IC" style="rounded=0;whiteSpace=wrap;html=1;container=1;" parent="1" vertex="1">
          <mxGeometry x="370" y="230" width="85" height="40" as="geometry">
            <mxRectangle x="370" y="230" width="160" height="30" as="alternateBounds" />
          </mxGeometry>
        </mxCell>
        <mxCell id="OW7g6tEufCx2NIy_bn_X-144" style="edgeStyle=orthogonalEdgeStyle;rounded=0;orthogonalLoop=1;jettySize=auto;html=1;exitX=1;exitY=0.5;exitDx=0;exitDy=0;entryX=0;entryY=0.5;entryDx=0;entryDy=0;strokeColor=light-dark(#FFFFFF,#FF3333);" parent="1" source="OW7g6tEufCx2NIy_bn_X-40" target="OW7g6tEufCx2NIy_bn_X-12" edge="1">
          <mxGeometry relative="1" as="geometry">
            <Array as="points">
              <mxPoint x="536" y="250" />
            </Array>
          </mxGeometry>
        </mxCell>
        <mxCell id="OW7g6tEufCx2NIy_bn_X-40" value="Power MOSFET" style="rounded=0;whiteSpace=wrap;html=1;container=1;" parent="1" vertex="1">
          <mxGeometry x="472.1" y="230" width="65.8" height="40" as="geometry" />
        </mxCell>
        <mxCell id="OW7g6tEufCx2NIy_bn_X-56" value="Power Architecture*" style="rounded=0;whiteSpace=wrap;html=1;strokeColor=light-dark(#000000,#00CCCC);" parent="1" vertex="1">
          <mxGeometry x="437.05" y="481.72" width="90" height="48.28" as="geometry" />
        </mxCell>
        <mxCell id="OW7g6tEufCx2NIy_bn_X-90" value="" style="ellipse;whiteSpace=wrap;html=1;aspect=fixed;fillColor=light-dark(#FFFFFF,#FF8000);strokeColor=none;" parent="1" vertex="1">
          <mxGeometry x="370" y="220" width="10" height="10" as="geometry" />
        </mxCell>
        <mxCell id="OW7g6tEufCx2NIy_bn_X-108" value="" style="ellipse;whiteSpace=wrap;html=1;aspect=fixed;fillColor=light-dark(#FFFFFF,#FFFF00);strokeColor=none;" parent="1" vertex="1">
          <mxGeometry x="290" y="310" width="10" height="10" as="geometry" />
        </mxCell>
        <mxCell id="OW7g6tEufCx2NIy_bn_X-109" value="" style="ellipse;whiteSpace=wrap;html=1;aspect=fixed;fillColor=light-dark(#FFFFFF,#FF3333);strokeColor=none;" parent="1" vertex="1">
          <mxGeometry x="435.8" y="471.72" width="10" height="10" as="geometry" />
        </mxCell>
        <mxCell id="OW7g6tEufCx2NIy_bn_X-111" value="" style="ellipse;whiteSpace=wrap;html=1;aspect=fixed;fillColor=light-dark(#FFFFFF,#FF8000);strokeColor=none;" parent="1" vertex="1">
          <mxGeometry x="445.8" y="471.72" width="10" height="10" as="geometry" />
        </mxCell>
        <mxCell id="OW7g6tEufCx2NIy_bn_X-112" value="" style="ellipse;whiteSpace=wrap;html=1;aspect=fixed;fillColor=light-dark(#FFFFFF,#FFFF00);strokeColor=none;" parent="1" vertex="1">
          <mxGeometry x="455.8" y="471.72" width="10" height="10" as="geometry" />
        </mxCell>
        <mxCell id="OW7g6tEufCx2NIy_bn_X-119" value="" style="ellipse;whiteSpace=wrap;html=1;aspect=fixed;fillColor=light-dark(#FFFFFF,#FF3333);strokeColor=none;" parent="1" vertex="1">
          <mxGeometry x="470.8" y="220" width="10" height="10" as="geometry" />
        </mxCell>
        <mxCell id="OW7g6tEufCx2NIy_bn_X-145" value="&lt;font style=&quot;font-size: 11px;&quot;&gt;PWM&lt;/font&gt;" style="text;html=1;align=center;verticalAlign=middle;whiteSpace=wrap;rounded=0;" parent="1" vertex="1">
          <mxGeometry x="570" y="235" width="30" height="20" as="geometry" />
        </mxCell>
        <mxCell id="OW7g6tEufCx2NIy_bn_X-146" value="User Button" style="rounded=0;whiteSpace=wrap;html=1;container=1;" parent="1" vertex="1">
          <mxGeometry x="435.8" y="355" width="80" height="20" as="geometry" />
        </mxCell>
        <mxCell id="OW7g6tEufCx2NIy_bn_X-150" style="edgeStyle=orthogonalEdgeStyle;rounded=0;orthogonalLoop=1;jettySize=auto;html=1;exitX=0;exitY=0.5;exitDx=0;exitDy=0;strokeColor=light-dark(#FFFFFF,#FFFF00);" parent="1" source="OW7g6tEufCx2NIy_bn_X-147" edge="1">
          <mxGeometry relative="1" as="geometry">
            <mxPoint x="390.8" y="395" as="targetPoint" />
          </mxGeometry>
        </mxCell>
        <mxCell id="OW7g6tEufCx2NIy_bn_X-147" value="Reset Button" style="rounded=0;whiteSpace=wrap;html=1;container=1;" parent="1" vertex="1">
          <mxGeometry x="435.8" y="385" width="80" height="20" as="geometry" />
        </mxCell>
        <mxCell id="OW7g6tEufCx2NIy_bn_X-148" value="LED" style="rounded=0;whiteSpace=wrap;html=1;container=1;" parent="1" vertex="1">
          <mxGeometry x="435.8" y="415" width="80" height="20" as="geometry" />
        </mxCell>
        <mxCell id="OW7g6tEufCx2NIy_bn_X-151" style="edgeStyle=orthogonalEdgeStyle;rounded=0;orthogonalLoop=1;jettySize=auto;html=1;exitX=0;exitY=0.5;exitDx=0;exitDy=0;entryX=0.992;entryY=0.103;entryDx=0;entryDy=0;entryPerimeter=0;strokeColor=light-dark(#FFFFFF,#FFFF00);" parent="1" source="OW7g6tEufCx2NIy_bn_X-146" edge="1">
          <mxGeometry relative="1" as="geometry">
            <mxPoint x="390.00000000000006" y="364.56999999999994" as="targetPoint" />
          </mxGeometry>
        </mxCell>
        <mxCell id="OW7g6tEufCx2NIy_bn_X-154" value="" style="ellipse;whiteSpace=wrap;html=1;aspect=fixed;fillColor=light-dark(#FFFFFF,#FFFF00);strokeColor=none;" parent="1" vertex="1">
          <mxGeometry x="435.8" y="345" width="10" height="10" as="geometry" />
        </mxCell>
        <mxCell id="OW7g6tEufCx2NIy_bn_X-155" value="" style="ellipse;whiteSpace=wrap;html=1;aspect=fixed;fillColor=light-dark(#FFFFFF,#FFFF00);strokeColor=none;" parent="1" vertex="1">
          <mxGeometry x="435.8" y="375" width="10" height="10" as="geometry" />
        </mxCell>
        <mxCell id="OW7g6tEufCx2NIy_bn_X-156" value="" style="ellipse;whiteSpace=wrap;html=1;aspect=fixed;fillColor=light-dark(#FFFFFF,#FFFF00);strokeColor=none;" parent="1" vertex="1">
          <mxGeometry x="435.8" y="405" width="10" height="10" as="geometry" />
        </mxCell>
        <mxCell id="OW7g6tEufCx2NIy_bn_X-157" value="" style="ellipse;whiteSpace=wrap;html=1;aspect=fixed;fillColor=light-dark(#FFFFFF,#FF8000);strokeColor=none;" parent="1" vertex="1">
          <mxGeometry x="637.5" y="290" width="10" height="10" as="geometry" />
        </mxCell>
        <mxCell id="OW7g6tEufCx2NIy_bn_X-158" value="" style="ellipse;whiteSpace=wrap;html=1;aspect=fixed;fillColor=light-dark(#FFFFFF,#FF3333);strokeColor=none;" parent="1" vertex="1">
          <mxGeometry x="637.5" y="210" width="10" height="10" as="geometry" />
        </mxCell>
        <mxCell id="OW7g6tEufCx2NIy_bn_X-161" style="edgeStyle=orthogonalEdgeStyle;rounded=0;orthogonalLoop=1;jettySize=auto;html=1;startArrow=classic;startFill=1;strokeColor=light-dark(#FFFFFF,#FFFF00);exitX=0;exitY=0.5;exitDx=0;exitDy=0;" parent="1" source="OW7g6tEufCx2NIy_bn_X-19" edge="1">
          <mxGeometry relative="1" as="geometry">
            <mxPoint x="630" y="450" as="sourcePoint" />
            <mxPoint x="390" y="455" as="targetPoint" />
            <Array as="points">
              <mxPoint x="390" y="455" />
            </Array>
          </mxGeometry>
        </mxCell>
        <mxCell id="OW7g6tEufCx2NIy_bn_X-162" value="&lt;font style=&quot;font-size: 11px;&quot;&gt;I2C&lt;/font&gt;" style="text;html=1;align=center;verticalAlign=middle;whiteSpace=wrap;rounded=0;" parent="1" vertex="1">
          <mxGeometry x="570" y="435" width="30" height="20" as="geometry" />
        </mxCell>
        <mxCell id="OW7g6tEufCx2NIy_bn_X-173" style="edgeStyle=orthogonalEdgeStyle;rounded=0;orthogonalLoop=1;jettySize=auto;html=1;exitX=0;exitY=0.5;exitDx=0;exitDy=0;entryX=0.867;entryY=0;entryDx=0;entryDy=0;entryPerimeter=0;strokeColor=light-dark(#FFFFFF,#FFFF00);startArrow=classicThin;startFill=1;" parent="1" source="OW7g6tEufCx2NIy_bn_X-163" target="OW7g6tEufCx2NIy_bn_X-41" edge="1">
          <mxGeometry relative="1" as="geometry">
            <mxPoint x="390" y="320" as="targetPoint" />
            <Array as="points">
              <mxPoint x="377" y="305" />
            </Array>
          </mxGeometry>
        </mxCell>
        <mxCell id="OW7g6tEufCx2NIy_bn_X-163" value="SD Card" style="rounded=0;whiteSpace=wrap;html=1;" parent="1" vertex="1">
          <mxGeometry x="435.8" y="290" width="65" height="30" as="geometry" />
        </mxCell>
        <mxCell id="OW7g6tEufCx2NIy_bn_X-164" value="&lt;font style=&quot;font-size: 11px;&quot;&gt;PWM&lt;/font&gt;" style="text;html=1;align=center;verticalAlign=middle;whiteSpace=wrap;rounded=0;rotation=270;" parent="1" vertex="1">
          <mxGeometry x="330" y="275" width="30" height="20" as="geometry" />
        </mxCell>
        <mxCell id="OW7g6tEufCx2NIy_bn_X-165" style="edgeStyle=orthogonalEdgeStyle;rounded=0;orthogonalLoop=1;jettySize=auto;html=1;exitX=1.002;exitY=0.072;exitDx=0;exitDy=0;entryX=0;entryY=0.5;entryDx=0;entryDy=0;strokeColor=light-dark(#FFFFFF,#FFFF00);exitPerimeter=0;" parent="1" source="OW7g6tEufCx2NIy_bn_X-41" target="OW7g6tEufCx2NIy_bn_X-8" edge="1">
          <mxGeometry relative="1" as="geometry">
            <mxPoint x="620" y="625" as="sourcePoint" />
            <mxPoint x="620" y="540" as="targetPoint" />
            <Array as="points" />
          </mxGeometry>
        </mxCell>
        <mxCell id="OW7g6tEufCx2NIy_bn_X-168" value="&lt;font style=&quot;font-size: 11px;&quot;&gt;PWM&lt;/font&gt;" style="text;html=1;align=center;verticalAlign=middle;whiteSpace=wrap;rounded=0;" parent="1" vertex="1">
          <mxGeometry x="570" y="320" width="30" height="20" as="geometry" />
        </mxCell>
        <mxCell id="OW7g6tEufCx2NIy_bn_X-172" value="" style="ellipse;whiteSpace=wrap;html=1;aspect=fixed;fillColor=light-dark(#FFFFFF,#FFFF00);strokeColor=none;" parent="1" vertex="1">
          <mxGeometry x="437.05" y="280" width="10" height="10" as="geometry" />
        </mxCell>
        <mxCell id="OW7g6tEufCx2NIy_bn_X-174" value="&lt;span style=&quot;font-size: 11px;&quot;&gt;SPI&lt;/span&gt;" style="text;html=1;align=center;verticalAlign=middle;whiteSpace=wrap;rounded=0;" parent="1" vertex="1">
          <mxGeometry x="390" y="285" width="30" height="20" as="geometry" />
        </mxCell>
        <mxCell id="OW7g6tEufCx2NIy_bn_X-177" style="edgeStyle=orthogonalEdgeStyle;rounded=0;orthogonalLoop=1;jettySize=auto;html=1;exitX=0;exitY=0.5;exitDx=0;exitDy=0;entryX=1;entryY=0.5;entryDx=0;entryDy=0;startArrow=classic;startFill=1;" parent="1" source="OW7g6tEufCx2NIy_bn_X-176" target="OW7g6tEufCx2NIy_bn_X-186" edge="1">
          <mxGeometry relative="1" as="geometry">
            <mxPoint x="140" y="260" as="targetPoint" />
          </mxGeometry>
        </mxCell>
        <mxCell id="OW7g6tEufCx2NIy_bn_X-180" style="edgeStyle=orthogonalEdgeStyle;rounded=0;orthogonalLoop=1;jettySize=auto;html=1;exitX=1;exitY=0.5;exitDx=0;exitDy=0;entryX=0.25;entryY=0;entryDx=0;entryDy=0;strokeColor=light-dark(#FFFFFF,#FFFF00);startArrow=classic;startFill=1;" parent="1" source="OW7g6tEufCx2NIy_bn_X-176" target="OW7g6tEufCx2NIy_bn_X-47" edge="1">
          <mxGeometry relative="1" as="geometry" />
        </mxCell>
        <mxCell id="OW7g6tEufCx2NIy_bn_X-176" value="UART To Serial Bridge" style="rounded=0;whiteSpace=wrap;html=1;container=1;" parent="1" vertex="1">
          <mxGeometry x="180" y="240" width="77.5" height="40" as="geometry" />
        </mxCell>
        <mxCell id="OW7g6tEufCx2NIy_bn_X-178" value="&lt;span style=&quot;font-size: 11px;&quot;&gt;USB&lt;/span&gt;" style="text;html=1;align=center;verticalAlign=middle;whiteSpace=wrap;rounded=0;" parent="1" vertex="1">
          <mxGeometry x="115" y="245" width="30" height="20" as="geometry" />
        </mxCell>
        <mxCell id="OW7g6tEufCx2NIy_bn_X-179" value="&lt;span style=&quot;font-size: 11px;&quot;&gt;UART&lt;/span&gt;" style="text;html=1;align=center;verticalAlign=middle;whiteSpace=wrap;rounded=0;" parent="1" vertex="1">
          <mxGeometry x="290" y="245" width="30" height="20" as="geometry" />
        </mxCell>
        <mxCell id="OW7g6tEufCx2NIy_bn_X-24" value="" style="rounded=0;whiteSpace=wrap;html=1;" parent="1" vertex="1">
          <mxGeometry x="-20" y="484.14" width="120" height="55.86" as="geometry" />
        </mxCell>
        <mxCell id="OW7g6tEufCx2NIy_bn_X-26" value="Node RED Webpage Interface" style="text;html=1;align=center;verticalAlign=middle;whiteSpace=wrap;rounded=0;" parent="1" vertex="1">
          <mxGeometry x="-15" y="497.07" width="110" height="30" as="geometry" />
        </mxCell>
        <mxCell id="OW7g6tEufCx2NIy_bn_X-27" value="" style="sketch=0;pointerEvents=1;shadow=0;dashed=0;html=1;strokeColor=none;fillColor=#434445;aspect=fixed;labelPosition=center;verticalLabelPosition=bottom;verticalAlign=top;align=center;outlineConnect=0;shape=mxgraph.vvd.wi_fi;rotation=45;" parent="1" vertex="1">
          <mxGeometry x="110" y="490" width="40" height="40" as="geometry" />
        </mxCell>
        <mxCell id="OW7g6tEufCx2NIy_bn_X-29" value="Actor" style="shape=umlActor;verticalLabelPosition=bottom;verticalAlign=top;outlineConnect=0;fontColor=none;html=1;noLabel=1;" parent="1" vertex="1">
          <mxGeometry x="5" y="330" width="65" height="130" as="geometry" />
        </mxCell>
        <mxCell id="OW7g6tEufCx2NIy_bn_X-186" value="" style="rounded=0;whiteSpace=wrap;html=1;" parent="1" vertex="1">
          <mxGeometry x="-5" y="218.75" width="90" height="82.5" as="geometry" />
        </mxCell>
        <mxCell id="OW7g6tEufCx2NIy_bn_X-187" value="&lt;b&gt;&lt;font style=&quot;font-size: 13px;&quot;&gt;Console&lt;/font&gt;&lt;/b&gt;" style="text;html=1;align=center;verticalAlign=middle;whiteSpace=wrap;rounded=0;" parent="1" vertex="1">
          <mxGeometry x="10" y="215" width="60" height="30" as="geometry" />
        </mxCell>
        <mxCell id="OW7g6tEufCx2NIy_bn_X-189" value="Command Line Interface" style="text;html=1;align=center;verticalAlign=middle;whiteSpace=wrap;rounded=0;" parent="1" vertex="1">
          <mxGeometry x="5" y="255" width="70" height="30" as="geometry" />
        </mxCell>
      </root>
    </mxGraphModel>
  </diagram>
</mxfile>
